<svg width="400" height="160" xmlns="http://www.w3.org/2000/svg">
    
    <line x1="5" y1="5" x2="395" y2="5" stroke="black" stroke-width="2" />
    <line x1="395" y1="5" x2="395" y2="155" stroke="black" stroke-width="2" />
    <line x1="395" y1="155" x2="5" y2="155" stroke="black" stroke-width="2" />
    <line x1="5" y1="155" x2="5" y2="5" stroke="black" stroke-width="2" />


    <g transform="translate(100,50)" id="svgGroup" stroke-linecap="round" 
        fill-rule="evenodd" font-size="9pt" stroke="#000" stroke-width="0.25mm"
        fill="#000" style="stroke:#000;stroke-width:0.25mm;fill:#000">
        <path d="M 78.06 14.34 L 78.06 46.44 L 69.12 46.44 L 69.12 13.74 A 1.596 1.596 0 0 0 69 13.115 A 1.512 1.512 0 0 0 68.67 12.63 A 1.505 1.505 0 0 0 67.581 12.18 A 1.919 1.919 0 0 0 67.56 12.18 A 1.431 1.431 0 0 0 66.539 12.601 A 1.878 1.878 0 0 0 66.51 12.63 A 1.505 1.505 0 0 0 66.06 13.719 A 1.919 1.919 0 0 0 66.06 13.74 L 66.06 46.44 L 57.06 46.44 L 57.06 4.44 L 64.2 4.44 L 64.2 6.54 L 64.8 6.54 Q 65.28 5.52 66.87 4.68 Q 68.46 3.84 70.32 3.84 A 9.193 9.193 0 0 1 72.204 4.022 Q 73.755 4.347 74.85 5.25 A 7.495 7.495 0 0 1 76.936 8.039 A 9.481 9.481 0 0 1 77.31 9.03 A 15.85 15.85 0 0 1 77.936 12.045 A 20.53 20.53 0 0 1 78.06 14.34 Z M 126.9 14.34 L 126.9 46.44 L 117.96 46.44 L 117.96 13.74 A 1.596 1.596 0 0 0 117.84 13.115 A 1.512 1.512 0 0 0 117.51 12.63 A 1.505 1.505 0 0 0 116.421 12.18 A 1.919 1.919 0 0 0 116.4 12.18 A 1.431 1.431 0 0 0 115.379 12.601 A 1.878 1.878 0 0 0 115.35 12.63 A 1.505 1.505 0 0 0 114.9 13.719 A 1.919 1.919 0 0 0 114.9 13.74 L 114.9 46.44 L 105.9 46.44 L 105.9 4.44 L 113.04 4.44 L 113.04 6.54 L 113.64 6.54 Q 114.12 5.52 115.71 4.68 Q 117.3 3.84 119.16 3.84 A 9.193 9.193 0 0 1 121.044 4.022 Q 122.595 4.347 123.69 5.25 A 7.495 7.495 0 0 1 125.776 8.039 A 9.481 9.481 0 0 1 126.15 9.03 A 15.85 15.85 0 0 1 126.776 12.045 A 20.53 20.53 0 0 1 126.9 14.34 Z M 153.3 36.54 L 153.3 31.74 L 162.24 31.74 L 162.24 36.84 A 1.572 1.572 0 0 0 162.526 37.739 A 2.112 2.112 0 0 0 162.69 37.95 A 1.522 1.522 0 0 0 163.167 38.32 A 1.431 1.431 0 0 0 163.8 38.46 A 1.502 1.502 0 0 0 164.895 37.997 A 1.992 1.992 0 0 0 164.94 37.95 Q 165.42 37.44 165.42 36.84 A 4.096 4.096 0 0 0 165.4 36.426 Q 165.371 36.142 165.3 35.91 A 2.261 2.261 0 0 0 165.209 35.669 Q 165.096 35.413 164.893 35.075 A 9.954 9.954 0 0 0 164.76 34.86 L 157.56 23.1 A 41.318 41.318 0 0 0 156.607 21.568 A 52.043 52.043 0 0 0 155.76 20.31 A 23.394 23.394 0 0 1 154.399 18.105 A 20.511 20.511 0 0 1 154.02 17.37 Q 153.313 15.926 153.3 14.626 A 4.856 4.856 0 0 1 153.3 14.58 L 153.3 14.34 A 10.535 10.535 0 0 1 153.951 10.607 A 9.85 9.85 0 0 1 154.71 9.03 Q 156.12 6.66 158.52 5.25 Q 160.92 3.84 163.8 3.84 A 10.535 10.535 0 0 1 167.533 4.491 A 9.85 9.85 0 0 1 169.11 5.25 Q 171.48 6.66 172.89 9.03 Q 174.3 11.4 174.3 14.34 L 174.3 18.6 L 165.42 18.6 L 165.42 13.98 A 1.554 1.554 0 0 0 164.955 12.855 A 1.96 1.96 0 0 0 164.94 12.84 A 1.626 1.626 0 0 0 164.366 12.46 A 1.58 1.58 0 0 0 163.8 12.36 Q 163.2 12.36 162.72 12.84 A 1.626 1.626 0 0 0 162.34 13.414 A 1.58 1.58 0 0 0 162.24 13.98 Q 162.24 14.309 162.332 14.545 A 1.003 1.003 0 0 0 162.39 14.67 L 162.84 15.48 L 170.28 27.3 Q 171.66 29.52 172.98 31.71 A 9.058 9.058 0 0 1 174.165 34.784 A 8.483 8.483 0 0 1 174.3 36.3 L 174.3 36.54 A 10.535 10.535 0 0 1 173.649 40.273 A 9.85 9.85 0 0 1 172.89 41.85 Q 171.48 44.22 169.11 45.63 Q 166.74 47.04 163.8 47.04 Q 160.92 47.04 158.52 45.63 Q 156.12 44.22 154.71 41.85 Q 153.3 39.48 153.3 36.54 Z M 176.7 36.54 L 176.7 31.74 L 185.64 31.74 L 185.64 36.84 A 1.572 1.572 0 0 0 185.926 37.739 A 2.112 2.112 0 0 0 186.09 37.95 A 1.522 1.522 0 0 0 186.567 38.32 A 1.431 1.431 0 0 0 187.2 38.46 A 1.502 1.502 0 0 0 188.295 37.997 A 1.992 1.992 0 0 0 188.34 37.95 Q 188.82 37.44 188.82 36.84 A 4.096 4.096 0 0 0 188.8 36.426 Q 188.771 36.142 188.7 35.91 A 2.261 2.261 0 0 0 188.609 35.669 Q 188.496 35.413 188.293 35.075 A 9.954 9.954 0 0 0 188.16 34.86 L 180.96 23.1 A 41.318 41.318 0 0 0 180.007 21.568 A 52.043 52.043 0 0 0 179.16 20.31 A 23.394 23.394 0 0 1 177.799 18.105 A 20.511 20.511 0 0 1 177.42 17.37 Q 176.713 15.926 176.7 14.626 A 4.856 4.856 0 0 1 176.7 14.58 L 176.7 14.34 A 10.535 10.535 0 0 1 177.351 10.607 A 9.85 9.85 0 0 1 178.11 9.03 Q 179.52 6.66 181.92 5.25 Q 184.32 3.84 187.2 3.84 A 10.535 10.535 0 0 1 190.933 4.491 A 9.85 9.85 0 0 1 192.51 5.25 Q 194.88 6.66 196.29 9.03 Q 197.7 11.4 197.7 14.34 L 197.7 18.6 L 188.82 18.6 L 188.82 13.98 A 1.554 1.554 0 0 0 188.355 12.855 A 1.96 1.96 0 0 0 188.34 12.84 A 1.626 1.626 0 0 0 187.766 12.46 A 1.58 1.58 0 0 0 187.2 12.36 Q 186.6 12.36 186.12 12.84 A 1.626 1.626 0 0 0 185.74 13.414 A 1.58 1.58 0 0 0 185.64 13.98 Q 185.64 14.309 185.732 14.545 A 1.003 1.003 0 0 0 185.79 14.67 L 186.24 15.48 L 193.68 27.3 Q 195.06 29.52 196.38 31.71 A 9.058 9.058 0 0 1 197.565 34.784 A 8.483 8.483 0 0 1 197.7 36.3 L 197.7 36.54 A 10.535 10.535 0 0 1 197.049 40.273 A 9.85 9.85 0 0 1 196.29 41.85 Q 194.88 44.22 192.51 45.63 Q 190.14 47.04 187.2 47.04 Q 184.32 47.04 181.92 45.63 Q 179.52 44.22 178.11 41.85 Q 176.7 39.48 176.7 36.54 Z M 129.9 36.54 L 129.9 14.34 A 10.535 10.535 0 0 1 130.551 10.607 A 9.85 9.85 0 0 1 131.31 9.03 Q 132.72 6.66 135.12 5.25 Q 137.52 3.84 140.4 3.84 Q 143.28 3.84 145.68 5.25 Q 148.08 6.66 149.49 9.03 Q 150.9 11.4 150.9 14.34 L 150.9 27.78 L 138.84 27.78 L 138.84 37.14 A 1.505 1.505 0 0 0 139.191 38.106 A 1.993 1.993 0 0 0 139.29 38.22 A 1.456 1.456 0 0 0 140.339 38.699 A 1.775 1.775 0 0 0 140.4 38.7 A 1.475 1.475 0 0 0 140.966 38.595 A 1.372 1.372 0 0 0 141.48 38.22 A 1.711 1.711 0 0 0 141.805 37.685 A 1.562 1.562 0 0 0 141.9 37.14 L 141.9 30.84 L 150.9 30.84 L 150.9 37.2 Q 150.78 39.96 149.31 42.18 Q 147.84 44.4 145.53 45.72 A 10.115 10.115 0 0 1 140.587 47.039 A 11.942 11.942 0 0 1 140.4 47.04 Q 137.52 47.04 135.12 45.63 Q 132.72 44.22 131.31 41.85 Q 129.9 39.48 129.9 36.54 Z M 10.5 46.44 L 0 46.44 L 0 4.44 L 10.5 4.44 A 11.011 11.011 0 0 1 14.073 5.008 A 10.043 10.043 0 0 1 15.81 5.79 Q 18.18 7.14 19.59 9.42 Q 21 11.7 21 14.64 A 8.097 8.097 0 0 1 20.688 16.828 A 10.03 10.03 0 0 1 20.34 17.85 Q 19.68 19.5 18.48 20.76 Q 17.28 22.02 15.6 22.5 L 15.6 23.1 Q 18.06 24.06 19.53 26.22 Q 21 28.38 21 30.66 L 21 35.94 A 10.535 10.535 0 0 1 20.349 39.673 A 9.85 9.85 0 0 1 19.59 41.25 Q 18.18 43.62 15.81 45.03 Q 13.44 46.44 10.5 46.44 Z M 40.8 46.44 L 24 46.44 L 24 4.44 L 32.94 4.44 L 32.94 38.7 L 40.8 38.7 L 40.8 46.44 Z M 92.16 46.44 L 81.66 46.44 L 81.66 4.44 L 92.16 4.44 A 10.535 10.535 0 0 1 95.893 5.091 A 9.85 9.85 0 0 1 97.47 5.85 Q 99.84 7.26 101.25 9.63 Q 102.66 12 102.66 14.94 L 102.66 35.94 A 10.535 10.535 0 0 1 102.009 39.673 A 9.85 9.85 0 0 1 101.25 41.25 Q 99.84 43.62 97.47 45.03 Q 95.1 46.44 92.16 46.44 Z M 53.46 46.44 L 44.4 46.44 L 44.4 4.44 L 53.46 4.44 L 53.46 46.44 Z M 90.6 12.24 L 90.6 38.7 L 92.28 38.7 A 1.401 1.401 0 0 0 92.796 38.608 A 1.28 1.28 0 0 0 93.27 38.28 Q 93.66 37.86 93.66 37.32 L 93.66 13.62 Q 93.66 13.08 93.27 12.66 A 1.283 1.283 0 0 0 92.336 12.241 A 1.673 1.673 0 0 0 92.28 12.24 L 90.6 12.24 Z M 8.94 27.78 L 8.94 38.7 L 9.36 38.7 A 1.876 1.876 0 0 0 10.607 38.219 Q 10.872 37.993 11.111 37.66 A 4.258 4.258 0 0 0 11.22 37.5 A 4.772 4.772 0 0 0 11.92 35.647 A 6.353 6.353 0 0 0 12 34.62 L 12 31.86 A 6.416 6.416 0 0 0 11.871 30.54 Q 11.683 29.645 11.22 28.95 A 3.44 3.44 0 0 0 10.737 28.365 Q 10.387 28.031 9.989 27.888 A 1.844 1.844 0 0 0 9.36 27.78 L 8.94 27.78 Z M 53.46 2.64 L 44.4 2.64 L 44.4 0 L 53.46 0 L 53.46 2.64 Z M 138.84 13.14 L 138.84 19.38 L 141.9 19.38 L 141.9 13.14 A 1.693 1.693 0 0 0 141.825 12.626 A 1.38 1.38 0 0 0 141.48 12.06 A 1.418 1.418 0 0 0 140.583 11.649 A 1.924 1.924 0 0 0 140.4 11.64 A 1.711 1.711 0 0 0 139.81 11.739 A 1.518 1.518 0 0 0 139.29 12.06 Q 138.84 12.48 138.84 13.14 Z M 8.94 12.24 L 8.94 17.58 L 9.66 17.58 A 2.147 2.147 0 0 0 11.239 16.904 A 2.862 2.862 0 0 0 11.31 16.83 A 2.588 2.588 0 0 0 11.98 15.32 A 3.461 3.461 0 0 0 12 14.94 A 3.115 3.115 0 0 0 11.848 13.95 A 2.66 2.66 0 0 0 11.31 13.02 A 2.444 2.444 0 0 0 10.692 12.508 A 2.048 2.048 0 0 0 9.66 12.24 L 8.94 12.24 Z" 
            vector-effect="non-scaling-stroke"/>
    </g>

    <polygon points="30,45 40,45 40,115 30,115" fill="black" />
    <polygon points="50,60 90,60 90,70 50,70" fill="black" />
    <polygon points="50,80 90,80 90,90 50,90" fill="black" />
    
    <polygon points="348,30 355,23 390,75 355,127 348,120 378,75" fill="black" />
    <polygon points="305,60 345,60 345,70 305,70" fill="black" />
    <polygon points="305,80 345,80 345,90 305,90" fill="black" />
</svg>
