<svg width="400" height="160" xmlns="http://www.w3.org/2000/svg">

    <defs>
        <style>
        @import url('https://fonts.googleapis.com/css2?family=Vina+Sans');
        </style>
    </defs>

    <line x1="5" y1="5" x2="395" y2="5" stroke="black" stroke-width="2" />
    <line x1="395" y1="5" x2="395" y2="155" stroke="black" stroke-width="2" />
    <line x1="395" y1="155" x2="5" y2="155" stroke="black" stroke-width="2" />
    <line x1="5" y1="155" x2="5" y2="5" stroke="black" stroke-width="2" />


    <text x="50%" y="50%" dominant-baseline="middle" 
        text-anchor="middle" font-size="60" fill="black"
        font-family="'Vina Sans', sans-serif">
        Blindness
    </text>

    <polygon points="30,45 40,45 40,115 30,115" fill="black" />
    <polygon points="50,60 90,60 90,70 50,70" fill="black" />
    <polygon points="50,80 90,80 90,90 50,90" fill="black" />
    
    <polygon points="348,30 355,23 390,75 355,127 348,120 378,75" fill="black" />
    <polygon points="305,60 345,60 345,70 305,70" fill="black" />
    <polygon points="305,80 345,80 345,90 305,90" fill="black" />
</svg>
